# xmcd CD database file
#
# Track frame offsets:
#	150
#	12013
#	23868
#	37336
#	50427
#	64836
#	79859
#	93896
#	107157
#	121018
#	132574
#	146350
#	159396
#	171538
#	183531
#	194781
#	207559
#	220206
#	234655
#	249368
#	262882
#	283228
#
# Disc length: 4039 seconds
#
# Revision: 0
# Processed by: cddbd v1.5.1PL0 Copyright (c) Steve Scherf et al.
# Submitted via: CDex 1.51
#
DISCID=4b0fc516
DTITLE=Ella Fitzgerald - Legends
DYEAR=2002
DGENRE=Soft
TTITLE0=A-Tisket A-Tasket
TTITLE1=I'll Chase The Blues Away
TTITLE2=T'Ain't What You Do
TTITLE3=Organ Grinder's Swing
TTITLE4=Rock It For Me
TTITLE5=Stairway To The Stars
TTITLE6=My Heart Belongs To Daddy
TTITLE7=Little White Lies
TTITLE8=Sing Song Swing
TTITLE9=Three Little Words
TTITLE10=My Man
TTITLE11=I Got It Bad And That Ain't Good
TTITLE12=All Over Nothing At All
TTITLE13=If Dreams Come True
TTITLE14=When I Get Low I Get High
TTITLE15=Sugar Blues
TTITLE16=Shake Down The Stars
TTITLE17=Undecided
TTITLE18=If You Ever Should Leave
TTITLE19=Imagination
TTITLE20=Mack The Knife
TTITLE21=Cottontail
EXTD=YEAR: 2002
EXTT0=
EXTT1=
EXTT2=
EXTT3=
EXTT4=
EXTT5=
EXTT6=
EXTT7=
EXTT8=
EXTT9=
EXTT10=
EXTT11=
EXTT12=
EXTT13=
EXTT14=
EXTT15=
EXTT16=
EXTT17=
EXTT18=
EXTT19=
EXTT20=
EXTT21=
PLAYORDER=
